<svg xmlns="http://www.w3.org/2000/svg" aria-hidden="true" style="position:absolute;width:0;height:0;overflow:hidden">
  <defs>
    <symbol id="icon-logo" viewBox="0 0 132 32">
      <path
        d="M32.262 4.289c1.563 0 2.978.394 4.244 1.173 1.266.785 2.268 1.893 3.005 3.334s1.106 3.111 1.106 5.009c0 1.899-.369 3.58-1.106 5.043s-1.739 2.597-3.005 3.401c-1.266.804-2.68 1.206-4.244 1.206-1.343 0-2.526-.279-3.55-.838s-1.855-1.262-2.493-2.111v11.493h-4.624V4.589h4.624V7.27c.594-.846 1.415-1.558 2.46-2.128s2.24-.854 3.583-.854zm18.395 0c1.739 0 3.297.38 4.673 1.139s2.444 1.837 3.203 3.234c.76 1.396 1.139 2.999 1.139 4.808 0 .67-.044 1.273-.132 1.809H46.165c.11 1.34.572 2.39 1.387 3.15s1.816 1.139 3.005 1.139c1.717 0 2.939-.748 3.666-2.245h4.987c-.528 1.787-1.541 3.256-3.038 4.406-1.497 1.153-3.336 1.726-5.515 1.726-1.761 0-3.341-.397-4.739-1.19s-2.488-1.916-3.269-3.368c-.782-1.452-1.172-3.127-1.172-5.026 0-1.918.385-3.605 1.156-5.06.771-1.452 1.849-2.566 3.236-3.351 1.387-.779 2.983-1.173 4.789-1.173zm72.456 0c1.739 0 3.297.38 4.673 1.139s2.443 1.837 3.203 3.234c.76 1.396 1.14 2.999 1.14 4.808 0 .67-.044 1.273-.132 1.809h-13.375c.109 1.34.572 2.39 1.387 3.15.814.76 1.816 1.139 3.005 1.139 1.718 0 2.939-.748 3.666-2.245h4.987c-.529 1.787-1.541 3.256-3.038 4.406-1.498 1.153-3.336 1.726-5.515 1.726-1.761 0-3.341-.397-4.739-1.19-1.399-.793-2.488-1.916-3.269-3.368-.782-1.452-1.173-3.127-1.173-5.026 0-1.918.385-3.605 1.156-5.06.77-1.452 1.849-2.566 3.236-3.351 1.387-.779 2.983-1.173 4.789-1.173zM4.569 16.859l8.504 4.998c-.33.279-.715.53-1.128.754-1.046.558-2.257.838-3.633.838-1.349 0-2.614-.307-3.743-.949v-5.641zM89.031 4.591v10.22c0 1.474.363 2.608 1.09 3.401s1.717 1.19 2.972 1.19c1.277 0 2.279-.397 3.005-1.19s1.09-1.927 1.09-3.401V4.591h4.657v18.564h-4.657v-2.346c-.594.804-1.371 1.435-2.328 1.893s-1.998.687-3.121.687c-1.431 0-2.697-.307-3.798-.922s-1.965-1.519-2.592-2.714-.941-2.619-.941-4.272V4.591h4.623zm-17.733-.268v4.926h-1.222c-1.453 0-2.548.346-3.286 1.039s-1.106 1.899-1.106 3.619v9.248H61.06V4.591h4.624v2.882c.594-.983 1.371-1.754 2.328-2.312s2.053-.838 3.286-.838zm42.7 0v4.926h-1.222c-1.453 0-2.549.346-3.286 1.039-.738.692-1.107 1.899-1.107 3.619v9.248h-4.623V4.591h4.623v2.882a6.55 6.55 0 0 1 2.328-2.312c.958-.558 2.053-.838 3.287-.838zM79.125 0v4.591h4.095v3.853h-4.095v8.98c0 .625.149 1.078.446 1.357s.798.419 1.503.419h2.147v3.954h-2.906c-3.897 0-5.845-1.921-5.845-5.764V8.443h-2.18V4.59h2.18V-.001h4.657zm-60.08 12.978v10.164h-4.651v-2.709c-.22.335-.468.642-.771.921l-4.458-2.597 9.88-5.78zM3.88 11.888V22.08c-1.156-.782-2.092-1.843-2.78-3.239C.412 17.473.054 15.909-.001 14.15l3.88-2.262zM31.04 8.41c-.837 0-1.624.218-2.361.653s-1.332 1.067-1.783 1.893c-.451.827-.677 1.798-.677 2.915s.226 2.092.677 2.915c.451.827 1.046 1.458 1.783 1.893s1.525.653 2.361.653c.859 0 1.657-.223 2.394-.67s1.332-1.083 1.783-1.91c.451-.827.677-1.809.677-2.949 0-1.117-.226-2.083-.677-2.898s-1.046-1.435-1.783-1.86-1.536-.637-2.394-.637zM19.044 4.6v7.567l-5.972 3.49V5.884c.523.391.963.838 1.321 1.34V4.599h4.651zM3.192 6.109 7.788 8.79.027 13.342c.028-1.703.385-3.211 1.073-4.524a8.945 8.945 0 0 1 2.092-2.709zm47.333 2.033c-1.145 0-2.108.352-2.89 1.056s-1.26 1.681-1.437 2.932h8.686c-.022-1.206-.451-2.173-1.288-2.899s-1.86-1.089-3.071-1.089zm72.456 0c-1.145 0-2.108.352-2.889 1.056-.782.704-1.261 1.681-1.437 2.932h8.685c-.022-1.206-.451-2.173-1.288-2.899-.836-.726-1.86-1.089-3.071-1.089zM8.366 4.294c1.349 0 2.532.279 3.578.838.138.084.303.168.44.279v5.278L3.825 5.663c.083-.084.193-.14.275-.195 1.266-.782 2.697-1.173 4.266-1.173z" />
    </symbol>
    <symbol id="icon-Combined-Shape" viewBox="0 0 132 32">
      <path
        d="M32.262 4.289c1.563 0 2.978.394 4.244 1.173 1.266.785 2.268 1.893 3.005 3.334s1.106 3.111 1.106 5.009c0 1.899-.369 3.58-1.106 5.043s-1.739 2.597-3.005 3.401c-1.266.804-2.68 1.206-4.244 1.206-1.343 0-2.526-.279-3.55-.838s-1.855-1.262-2.493-2.111v11.493h-4.624V4.589h4.624V7.27c.594-.846 1.415-1.558 2.46-2.128s2.24-.854 3.583-.854zm18.395 0c1.739 0 3.297.38 4.673 1.139s2.444 1.837 3.203 3.234c.76 1.396 1.139 2.999 1.139 4.808 0 .67-.044 1.273-.132 1.809H46.165c.11 1.34.572 2.39 1.387 3.15s1.816 1.139 3.005 1.139c1.717 0 2.939-.748 3.666-2.245h4.987c-.528 1.787-1.541 3.256-3.038 4.406-1.497 1.153-3.336 1.726-5.515 1.726-1.761 0-3.341-.397-4.739-1.19s-2.488-1.916-3.269-3.368c-.782-1.452-1.172-3.127-1.172-5.026 0-1.918.385-3.605 1.156-5.06.771-1.452 1.849-2.566 3.236-3.351 1.387-.779 2.983-1.173 4.789-1.173zm72.456 0c1.739 0 3.297.38 4.673 1.139s2.443 1.837 3.203 3.234c.76 1.396 1.14 2.999 1.14 4.808 0 .67-.044 1.273-.132 1.809h-13.375c.109 1.34.572 2.39 1.387 3.15.814.76 1.816 1.139 3.005 1.139 1.718 0 2.939-.748 3.666-2.245h4.987c-.529 1.787-1.541 3.256-3.038 4.406-1.498 1.153-3.336 1.726-5.515 1.726-1.761 0-3.341-.397-4.739-1.19-1.399-.793-2.488-1.916-3.269-3.368-.782-1.452-1.173-3.127-1.173-5.026 0-1.918.385-3.605 1.156-5.06.77-1.452 1.849-2.566 3.236-3.351 1.387-.779 2.983-1.173 4.789-1.173zM4.569 16.859l8.504 4.998c-.33.279-.715.53-1.128.754-1.046.558-2.257.838-3.633.838-1.349 0-2.614-.307-3.743-.949v-5.641zM89.031 4.591v10.22c0 1.474.363 2.608 1.09 3.401s1.717 1.19 2.972 1.19c1.277 0 2.279-.397 3.005-1.19s1.09-1.927 1.09-3.401V4.591h4.657v18.564h-4.657v-2.346c-.594.804-1.371 1.435-2.328 1.893s-1.998.687-3.121.687c-1.431 0-2.697-.307-3.798-.922s-1.965-1.519-2.592-2.714-.941-2.619-.941-4.272V4.591h4.623zm-17.733-.268v4.926h-1.222c-1.453 0-2.548.346-3.286 1.039s-1.106 1.899-1.106 3.619v9.248H61.06V4.591h4.624v2.882c.594-.983 1.371-1.754 2.328-2.312s2.053-.838 3.286-.838zm42.7 0v4.926h-1.222c-1.453 0-2.549.346-3.286 1.039-.738.692-1.107 1.899-1.107 3.619v9.248h-4.623V4.591h4.623v2.882a6.55 6.55 0 0 1 2.328-2.312c.958-.558 2.053-.838 3.287-.838zM79.125 0v4.591h4.095v3.853h-4.095v8.98c0 .625.149 1.078.446 1.357s.798.419 1.503.419h2.147v3.954h-2.906c-3.897 0-5.845-1.921-5.845-5.764V8.443h-2.18V4.59h2.18V-.001h4.657zm-60.08 12.978v10.164h-4.651v-2.709c-.22.335-.468.642-.771.921l-4.458-2.597 9.88-5.78zM3.88 11.888V22.08c-1.156-.782-2.092-1.843-2.78-3.239C.412 17.473.054 15.909-.001 14.15l3.88-2.262zM31.04 8.41c-.837 0-1.624.218-2.361.653s-1.332 1.067-1.783 1.893c-.451.827-.677 1.798-.677 2.915s.226 2.092.677 2.915c.451.827 1.046 1.458 1.783 1.893s1.525.653 2.361.653c.859 0 1.657-.223 2.394-.67s1.332-1.083 1.783-1.91c.451-.827.677-1.809.677-2.949 0-1.117-.226-2.083-.677-2.898s-1.046-1.435-1.783-1.86-1.536-.637-2.394-.637zM19.044 4.6v7.567l-5.972 3.49V5.884c.523.391.963.838 1.321 1.34V4.599h4.651zM3.192 6.109 7.788 8.79.027 13.342c.028-1.703.385-3.211 1.073-4.524a8.945 8.945 0 0 1 2.092-2.709zm47.333 2.033c-1.145 0-2.108.352-2.89 1.056s-1.26 1.681-1.437 2.932h8.686c-.022-1.206-.451-2.173-1.288-2.899s-1.86-1.089-3.071-1.089zm72.456 0c-1.145 0-2.108.352-2.889 1.056-.782.704-1.261 1.681-1.437 2.932h8.685c-.022-1.206-.451-2.173-1.288-2.899-.836-.726-1.86-1.089-3.071-1.089zM8.366 4.294c1.349 0 2.532.279 3.578.838.138.084.303.168.44.279v5.278L3.825 5.663c.083-.084.193-.14.275-.195 1.266-.782 2.697-1.173 4.266-1.173z" />
    </symbol>
  </defs>
</svg>