<svg xmlns="http://www.w3.org/2000/svg" aria-hidden="true" style="position:absolute;width:0;height:0;overflow:hidden">
  <defs>
    <symbol id="icon-hero-four" viewBox="0 0 126 32">
      <path
        d="M10 12.889c-1.924 0-3.481-1.488-3.481-3.328 0-1.835 1.557-3.324 3.481-3.324 1.92 0 3.476 1.488 3.476 3.324 0 1.839-1.557 3.328-3.476 3.328zM10 0C4.477 0 0 4.281 0 9.561c0 3.855 5.317 15.381 8.199 21.338.708 1.467 2.89 1.467 3.603 0 2.877-5.957 8.199-17.484 8.199-21.338 0-5.28-4.477-9.561-10-9.561zM34.032 1.272V18h-2.184V1.272h2.184zM36.938 11.4c0-1.36.272-2.544.816-3.552.544-1.024 1.296-1.816 2.256-2.376.976-.56 2.088-.84 3.336-.84 1.616 0 2.944.392 3.984 1.176 1.056.784 1.752 1.872 2.088 3.264h-2.352c-.224-.8-.664-1.432-1.32-1.896-.64-.464-1.44-.696-2.4-.696-1.248 0-2.256.432-3.024 1.296-.768.848-1.152 2.056-1.152 3.624 0 1.584.384 2.808 1.152 3.672s1.776 1.296 3.024 1.296c.96 0 1.76-.224 2.4-.672s1.08-1.088 1.32-1.92h2.352c-.352 1.344-1.056 2.424-2.112 3.24-1.056.8-2.376 1.2-3.96 1.2-1.248 0-2.36-.28-3.336-.84-.96-.56-1.712-1.352-2.256-2.376s-.816-2.224-.816-3.6zm27.394-.48c0 .416-.024.856-.072 1.32H53.748c.08 1.296.52 2.312 1.32 3.048.816.72 1.8 1.08 2.952 1.08.944 0 1.728-.216 2.352-.648a3.535 3.535 0 0 0 1.344-1.776h2.352a5.712 5.712 0 0 1-2.112 3.096c-1.056.784-2.368 1.176-3.936 1.176-1.248 0-2.368-.28-3.36-.84-.976-.56-1.744-1.352-2.304-2.376-.56-1.04-.84-2.24-.84-3.6s.272-2.552.816-3.576c.544-1.024 1.304-1.808 2.28-2.352.992-.56 2.128-.84 3.408-.84 1.248 0 2.352.272 3.312.816s1.696 1.296 2.208 2.256c.528.944.792 2.016.792 3.216zm-2.256-.456c0-.832-.184-1.544-.552-2.136a3.474 3.474 0 0 0-1.512-1.368c-.624-.32-1.32-.48-2.088-.48-1.104 0-2.048.352-2.832 1.056-.768.704-1.208 1.68-1.32 2.928h8.304zM69.399.24V18h-2.184V.24h2.184zm2.906 11.136c0-1.344.272-2.52.816-3.528.544-1.024 1.288-1.816 2.232-2.376.96-.56 2.024-.84 3.192-.84 1.152 0 2.152.248 3 .744s1.48 1.12 1.896 1.872v-2.4h2.208V18h-2.208v-2.448c-.432.768-1.08 1.408-1.944 1.92-.848.496-1.84.744-2.976.744-1.168 0-2.224-.288-3.168-.864s-1.688-1.384-2.232-2.424c-.544-1.04-.816-2.224-.816-3.552zm11.136.024c0-.992-.2-1.856-.6-2.592s-.944-1.296-1.632-1.68c-.672-.4-1.416-.6-2.232-.6s-1.56.192-2.232.576c-.672.384-1.208.944-1.608 1.68s-.6 1.6-.6 2.592c0 1.008.2 1.888.6 2.64.4.736.936 1.304 1.608 1.704.672.384 1.416.576 2.232.576s1.56-.192 2.232-.576a4.295 4.295 0 0 0 1.632-1.704c.4-.752.6-1.624.6-2.616zm12.307-6.792c1.6 0 2.896.488 3.888 1.464.992.96 1.488 2.352 1.488 4.176V18h-2.16v-7.44c0-1.312-.328-2.312-.984-3-.656-.704-1.552-1.056-2.688-1.056-1.152 0-2.072.36-2.76 1.08-.672.72-1.008 1.768-1.008 3.144V18H89.34V4.848h2.184V6.72a4.354 4.354 0 0 1 1.752-1.56 5.547 5.547 0 0 1 2.472-.552zm8.128 6.768c0-1.344.272-2.52.816-3.528.544-1.024 1.288-1.816 2.232-2.376.96-.56 2.032-.84 3.216-.84a5.87 5.87 0 0 1 2.856.72c.88.464 1.552 1.08 2.016 1.848V.24h2.208V18h-2.208v-2.472c-.432.784-1.072 1.432-1.92 1.944-.848.496-1.84.744-2.976.744-1.168 0-2.232-.288-3.192-.864-.944-.576-1.688-1.384-2.232-2.424s-.816-2.224-.816-3.552zm11.136.024c0-.992-.2-1.856-.6-2.592s-.944-1.296-1.632-1.68c-.672-.4-1.416-.6-2.232-.6s-1.56.192-2.232.576c-.672.384-1.208.944-1.608 1.68s-.6 1.6-.6 2.592c0 1.008.2 1.888.6 2.64.4.736.936 1.304 1.608 1.704.672.384 1.416.576 2.232.576s1.56-.192 2.232-.576a4.295 4.295 0 0 0 1.632-1.704c.4-.752.6-1.624.6-2.616z" />
    </symbol>
    <symbol id="icon-hero-one" viewBox="0 0 118 32">
      <path
        d="M14.102 5.053c.109 0 .197.088.197.197v.206a.197.197 0 0 1-.197.197h-.226v.664c6.906.212 12.44 5.878 12.44 12.838C26.316 26.25 20.567 32 13.475 32S.632 26.249.632 19.155c0-6.959 5.534-12.625 12.44-12.837v-.664h-.226a.197.197 0 0 1-.197-.197v-.206c0-.109.088-.197.197-.197h1.256zm-.307 2.948v1.127a.322.322 0 1 1-.644 0V8.001c-5.907.168-10.662 4.924-10.83 10.832h1.127a.322.322 0 1 1 0 .644H2.321c.168 5.908 4.923 10.664 10.83 10.832v-1.127a.322.322 0 1 1 .644 0v1.127c5.907-.167 10.662-4.924 10.83-10.832h-1.127a.322.322 0 1 1 0-.644h1.127c-.167-5.909-4.922-10.665-10.83-10.832zm-.321 10.554a.6.6 0 0 1 .6.6c0 .034-.005.067-.01.1l3.816 3.452a.694.694 0 0 1 .204.331l.052.187a.13.13 0 0 1-.146.162l-.192-.033a.69.69 0 0 1-.349-.17l-3.817-3.452a.586.586 0 0 1-.158.024.6.6 0 0 1 0-1.2zM37.821 7.276V5.599h3.8v14.612h-1.859V7.276h-1.94zm14.133-6.104-5.538 22.474h-1.819l5.517-22.474h1.839zm2.215 17.563c1.711-1.374 3.052-2.499 4.022-3.375.97-.889 1.785-1.812 2.445-2.769.674-.97 1.011-1.92 1.011-2.85 0-.876-.216-1.563-.647-2.061-.418-.512-1.098-.768-2.041-.768-.916 0-1.63.29-2.142.869-.499.566-.768 1.327-.808 2.284H54.23c.054-1.509.512-2.675 1.374-3.496s1.974-1.233 3.335-1.233c1.388 0 2.486.384 3.294 1.152.822.768 1.233 1.826 1.233 3.173 0 1.118-.337 2.21-1.011 3.274a14.397 14.397 0 0 1-2.264 2.789c-.849.795-1.933 1.725-3.254 2.789h6.952v1.536h-9.721v-1.314zm11.847-5.982c0-2.317.377-4.123 1.132-5.416.755-1.307 2.075-1.96 3.961-1.96 1.873 0 3.187.653 3.941 1.96.755 1.293 1.132 3.099 1.132 5.416 0 2.358-.377 4.19-1.132 5.497s-2.068 1.96-3.941 1.96c-1.886 0-3.207-.653-3.961-1.96s-1.132-3.139-1.132-5.497zm8.347 0c0-1.172-.081-2.163-.243-2.971-.148-.822-.465-1.482-.95-1.981-.472-.499-1.159-.748-2.061-.748-.916 0-1.617.249-2.102.748-.472.499-.788 1.159-.95 1.981-.148.808-.222 1.799-.222 2.971 0 1.213.074 2.23.222 3.052.162.822.478 1.482.95 1.981.485.499 1.186.748 2.102.748.903 0 1.59-.249 2.061-.748.485-.499.802-1.159.95-1.981.162-.822.243-1.839.243-3.052zm4.344 0c0-2.317.377-4.123 1.132-5.416.755-1.307 2.075-1.96 3.961-1.96 1.873 0 3.187.653 3.941 1.96.755 1.293 1.132 3.099 1.132 5.416 0 2.358-.377 4.19-1.132 5.497s-2.068 1.96-3.941 1.96c-1.886 0-3.207-.653-3.961-1.96s-1.132-3.139-1.132-5.497zm8.347 0c0-1.172-.081-2.163-.243-2.971-.148-.822-.465-1.482-.95-1.981-.472-.499-1.159-.748-2.061-.748-.916 0-1.617.249-2.102.748-.472.499-.788 1.159-.95 1.981-.148.808-.222 1.799-.222 2.971 0 1.213.074 2.23.222 3.052.162.822.478 1.482.95 1.981.485.499 1.186.748 2.102.748.903 0 1.59-.249 2.061-.748.485-.499.802-1.159.95-1.981.162-.822.243-1.839.243-3.052zm4.344 0c0-2.317.377-4.123 1.132-5.416.755-1.307 2.075-1.96 3.961-1.96 1.873 0 3.187.653 3.941 1.96.755 1.293 1.132 3.099 1.132 5.416 0 2.358-.377 4.19-1.132 5.497s-2.068 1.96-3.941 1.96c-1.886 0-3.207-.653-3.961-1.96s-1.132-3.139-1.132-5.497zm8.347 0c0-1.172-.081-2.163-.243-2.971-.148-.822-.465-1.482-.95-1.981-.472-.499-1.159-.748-2.061-.748-.916 0-1.617.249-2.102.748-.472.499-.788 1.159-.95 1.981-.148.808-.222 1.799-.222 2.971 0 1.213.074 2.23.222 3.052.162.822.478 1.482.95 1.981.485.499 1.186.748 2.102.748.903 0 1.59-.249 2.061-.748.485-.499.802-1.159.95-1.981.162-.822.243-1.839.243-3.052zm8.568 7.639c-.849 0-1.61-.141-2.284-.424-.674-.296-1.206-.701-1.597-1.213a3.279 3.279 0 0 1-.647-1.799h1.9c.054.552.31 1.004.768 1.354.472.35 1.085.525 1.839.525.701 0 1.253-.155 1.657-.465s.606-.701.606-1.172c0-.485-.216-.842-.647-1.071-.431-.243-1.098-.478-2.001-.707-.822-.216-1.496-.431-2.021-.647a3.836 3.836 0 0 1-1.334-.99c-.364-.445-.546-1.024-.546-1.738 0-.566.168-1.085.505-1.556s.815-.842 1.435-1.112c.62-.283 1.327-.424 2.122-.424 1.226 0 2.216.31 2.971.93s1.159 1.469 1.213 2.547h-1.839c-.04-.579-.276-1.044-.707-1.395-.418-.35-.984-.525-1.698-.525-.66 0-1.186.141-1.576.424s-.586.653-.586 1.112c0 .364.115.667.344.909.243.229.539.418.889.566.364.135.862.29 1.496.465.795.216 1.442.431 1.94.647.499.202.923.512 1.273.93.364.418.552.963.566 1.637 0 .606-.168 1.152-.505 1.637s-.815.869-1.435 1.152c-.606.269-1.307.404-2.102.404z" />
    </symbol>
    <symbol id="icon-hero-three" viewBox="0 0 116 32">
      <path
        d="M57.798 0C61.223 0 64 2.798 64 6.25v19.5c0 3.452-2.777 6.25-6.202 6.25H6.201c-3.425 0-6.202-2.798-6.202-6.25V6.25C-.001 2.798 2.776 0 6.201 0h51.597zM25.42 5.822c-1.357 0-2.564.233-3.62.698s-1.876 1.135-2.46 2.009c-.584.874-.877 1.9-.877 3.078 0 1.254.288 2.256.863 3.007s1.263 1.311 2.064 1.681c.801.371 1.843.746 3.125 1.126.943.266 1.683.508 2.22.727s.985.518 1.343.898.537.864.537 1.454c0 .722-.264 1.306-.792 1.753s-1.254.67-2.177.67c-.905 0-1.617-.238-2.135-.713-.498-.456-.783-1.069-.855-1.841l-.008-.097h-4.242l.003.13c.04 1.161.368 2.173.987 3.034.641.893 1.513 1.577 2.616 2.052s2.343.712 3.719.712c1.452 0 2.705-.271 3.761-.812s1.857-1.268 2.404-2.18.82-1.9.82-2.964c0-1.235-.292-2.232-.877-2.992s-1.282-1.33-2.093-1.71c-.811-.38-1.857-.76-3.139-1.14-.943-.285-1.673-.537-2.192-.755s-.952-.504-1.301-.855-.523-.793-.523-1.325c0-.76.231-1.339.693-1.739s1.079-.598 1.852-.598c.886 0 1.598.223 2.135.67.515.428.8.965.856 1.611l.006.085h4.355l-.01-.121c-.154-1.728-.853-3.079-2.097-4.054-1.272-.998-2.927-1.496-4.963-1.496zm21.368 0c-1.848 0-3.544.437-5.09 1.311s-2.771 2.085-3.676 3.634c-.905 1.549-1.357 3.292-1.357 5.23 0 1.957.452 3.71 1.357 5.258s2.13 2.76 3.676 3.634c1.546.874 3.243 1.311 5.09 1.311s3.544-.437 5.09-1.311c1.546-.874 2.767-2.085 3.662-3.634s1.343-3.301 1.343-5.258c0-1.938-.448-3.681-1.343-5.23s-2.111-2.76-3.648-3.634c-1.536-.874-3.238-1.311-5.104-1.311zm-33.263.285H9.566V26h3.959V6.107zm33.263 3.306c1.188 0 2.234.266 3.139.798s1.612 1.297 2.121 2.294.764 2.161.764 3.491-.255 2.498-.764 3.506-1.216 1.781-2.121 2.323c-.905.541-1.951.812-3.139.812s-2.239-.271-3.153-.812c-.914-.542-1.626-1.316-2.135-2.323s-.763-2.175-.763-3.505.254-2.494.763-3.491c.509-.998 1.221-1.762 2.135-2.294s1.965-.798 3.153-.798zM78.912 2.64V.648h4.512V18h-2.208V2.64h-2.304zm8.264 6.504c0-2.752.448-4.896 1.344-6.432.896-1.552 2.464-2.328 4.704-2.328 2.224 0 3.784.776 4.68 2.328.896 1.536 1.344 3.68 1.344 6.432 0 2.8-.448 4.976-1.344 6.528S95.448 18 93.224 18c-2.24 0-3.808-.776-4.704-2.328s-1.344-3.728-1.344-6.528zm9.912 0c0-1.392-.096-2.568-.288-3.528-.176-.976-.552-1.76-1.128-2.352-.56-.592-1.376-.888-2.448-.888-1.088 0-1.92.296-2.496.888-.56.592-.936 1.376-1.128 2.352-.176.96-.264 2.136-.264 3.528 0 1.44.088 2.648.264 3.624.192.976.568 1.76 1.128 2.352.576.592 1.408.888 2.496.888 1.072 0 1.888-.296 2.448-.888.576-.592.952-1.376 1.128-2.352.192-.976.288-2.184.288-3.624zm5.158 0c0-2.752.448-4.896 1.344-6.432.896-1.552 2.464-2.328 4.704-2.328 2.224 0 3.784.776 4.68 2.328.896 1.536 1.344 3.68 1.344 6.432 0 2.8-.448 4.976-1.344 6.528S110.518 18 108.294 18c-2.24 0-3.808-.776-4.704-2.328s-1.344-3.728-1.344-6.528zm9.912 0c0-1.392-.096-2.568-.288-3.528-.176-.976-.552-1.76-1.128-2.352-.56-.592-1.376-.888-2.448-.888-1.088 0-1.92.296-2.496.888-.56.592-.936 1.376-1.128 2.352-.176.96-.264 2.136-.264 3.528 0 1.44.088 2.648.264 3.624.192.976.568 1.76 1.128 2.352.576.592 1.408.888 2.496.888 1.072 0 1.888-.296 2.448-.888.576-.592.952-1.376 1.128-2.352.192-.976.288-2.184.288-3.624z" />
    </symbol>
    <symbol id="icon-hero-two" viewBox="0 0 67 32">
      <path
        d="m7.813 22.898 12.436 7.226A13.09 13.09 0 0 1 13.473 32c-2.033 0-3.946-.439-5.66-1.277v-7.825zm-.996-7.067v14.372C3.07 28.127.479 24.255.081 19.743l6.736-3.912zm20.13 2.595v.12c0 4.551-2.272 8.583-5.74 10.979l-6.736-3.872 12.476-7.226zM20.131 6.849c3.747 2.076 6.338 5.948 6.736 10.459l-6.736 3.912V6.848zM5.74 7.528l6.736 3.872L0 18.586v-.04c0-4.591 2.272-8.623 5.74-11.019zm7.734-2.475c2.033 0 3.946.439 5.66 1.277v7.785L6.698 6.889a13.45 13.45 0 0 1 6.776-1.836zM43.116 10.651h-2.324v9.56h-1.839v-9.56h-1.435V9.135h1.435v-.788c0-1.24.317-2.142.95-2.708.647-.579 1.677-.869 3.092-.869v1.536c-.808 0-1.381.162-1.718.485-.323.31-.485.829-.485 1.556v.788h2.324v1.516zm9.016-9.479-5.538 22.474h-1.819l5.517-22.474h1.839zm1.952 6.104V5.599h3.8v14.612h-1.859V7.276h-1.94zm6.473 0V5.599h3.8v14.612h-1.859V7.276h-1.94z" />
    </symbol>
    <symbol id="icon-logo" viewBox="0 0 132 32">
      <path
        d="M32.262 4.289c1.563 0 2.978.394 4.244 1.173 1.266.785 2.268 1.893 3.005 3.334s1.106 3.111 1.106 5.009c0 1.899-.369 3.58-1.106 5.043s-1.739 2.597-3.005 3.401c-1.266.804-2.68 1.206-4.244 1.206-1.343 0-2.526-.279-3.55-.838s-1.855-1.262-2.493-2.111v11.493h-4.624V4.589h4.624V7.27c.594-.846 1.415-1.558 2.46-2.128s2.24-.854 3.583-.854zm18.395 0c1.739 0 3.297.38 4.673 1.139s2.444 1.837 3.203 3.234c.76 1.396 1.139 2.999 1.139 4.808 0 .67-.044 1.273-.132 1.809H46.165c.11 1.34.572 2.39 1.387 3.15s1.816 1.139 3.005 1.139c1.717 0 2.939-.748 3.666-2.245h4.987c-.528 1.787-1.541 3.256-3.038 4.406-1.497 1.153-3.336 1.726-5.515 1.726-1.761 0-3.341-.397-4.739-1.19s-2.488-1.916-3.269-3.368c-.782-1.452-1.172-3.127-1.172-5.026 0-1.918.385-3.605 1.156-5.06.771-1.452 1.849-2.566 3.236-3.351 1.387-.779 2.983-1.173 4.789-1.173zm72.456 0c1.739 0 3.297.38 4.673 1.139s2.443 1.837 3.203 3.234c.76 1.396 1.14 2.999 1.14 4.808 0 .67-.044 1.273-.132 1.809h-13.375c.109 1.34.572 2.39 1.387 3.15.814.76 1.816 1.139 3.005 1.139 1.718 0 2.939-.748 3.666-2.245h4.987c-.529 1.787-1.541 3.256-3.038 4.406-1.498 1.153-3.336 1.726-5.515 1.726-1.761 0-3.341-.397-4.739-1.19-1.399-.793-2.488-1.916-3.269-3.368-.782-1.452-1.173-3.127-1.173-5.026 0-1.918.385-3.605 1.156-5.06.77-1.452 1.849-2.566 3.236-3.351 1.387-.779 2.983-1.173 4.789-1.173zM4.569 16.859l8.504 4.998c-.33.279-.715.53-1.128.754-1.046.558-2.257.838-3.633.838-1.349 0-2.614-.307-3.743-.949v-5.641zM89.031 4.591v10.22c0 1.474.363 2.608 1.09 3.401s1.717 1.19 2.972 1.19c1.277 0 2.279-.397 3.005-1.19s1.09-1.927 1.09-3.401V4.591h4.657v18.564h-4.657v-2.346c-.594.804-1.371 1.435-2.328 1.893s-1.998.687-3.121.687c-1.431 0-2.697-.307-3.798-.922s-1.965-1.519-2.592-2.714-.941-2.619-.941-4.272V4.591h4.623zm-17.733-.268v4.926h-1.222c-1.453 0-2.548.346-3.286 1.039s-1.106 1.899-1.106 3.619v9.248H61.06V4.591h4.624v2.882c.594-.983 1.371-1.754 2.328-2.312s2.053-.838 3.286-.838zm42.7 0v4.926h-1.222c-1.453 0-2.549.346-3.286 1.039-.738.692-1.107 1.899-1.107 3.619v9.248h-4.623V4.591h4.623v2.882a6.55 6.55 0 0 1 2.328-2.312c.958-.558 2.053-.838 3.287-.838zM79.125 0v4.591h4.095v3.853h-4.095v8.98c0 .625.149 1.078.446 1.357s.798.419 1.503.419h2.147v3.954h-2.906c-3.897 0-5.845-1.921-5.845-5.764V8.443h-2.18V4.59h2.18V-.001h4.657zm-60.08 12.978v10.164h-4.651v-2.709c-.22.335-.468.642-.771.921l-4.458-2.597 9.88-5.78zM3.88 11.888V22.08c-1.156-.782-2.092-1.843-2.78-3.239C.412 17.473.054 15.909-.001 14.15l3.88-2.262zM31.04 8.41c-.837 0-1.624.218-2.361.653s-1.332 1.067-1.783 1.893c-.451.827-.677 1.798-.677 2.915s.226 2.092.677 2.915c.451.827 1.046 1.458 1.783 1.893s1.525.653 2.361.653c.859 0 1.657-.223 2.394-.67s1.332-1.083 1.783-1.91c.451-.827.677-1.809.677-2.949 0-1.117-.226-2.083-.677-2.898s-1.046-1.435-1.783-1.86-1.536-.637-2.394-.637zM19.044 4.6v7.567l-5.972 3.49V5.884c.523.391.963.838 1.321 1.34V4.599h4.651zM3.192 6.109 7.788 8.79.027 13.342c.028-1.703.385-3.211 1.073-4.524a8.945 8.945 0 0 1 2.092-2.709zm47.333 2.033c-1.145 0-2.108.352-2.89 1.056s-1.26 1.681-1.437 2.932h8.686c-.022-1.206-.451-2.173-1.288-2.899s-1.86-1.089-3.071-1.089zm72.456 0c-1.145 0-2.108.352-2.889 1.056-.782.704-1.261 1.681-1.437 2.932h8.685c-.022-1.206-.451-2.173-1.288-2.899-.836-.726-1.86-1.089-3.071-1.089zM8.366 4.294c1.349 0 2.532.279 3.578.838.138.084.303.168.44.279v5.278L3.825 5.663c.083-.084.193-.14.275-.195 1.266-.782 2.697-1.173 4.266-1.173z" />
    </symbol>
    <symbol id="icon-circle" viewBox="0 0 32 32">
      <path stroke-linejoin="round" stroke-linecap="round" stroke-miterlimit="4" stroke-width="12.583"
        d="M16 5.514c5.791 0 10.486 4.695 10.486 10.486s-4.695 10.486-10.486 10.486-10.486-4.695-10.486-10.486 4.695-10.486 10.486-10.486zM18.422 11.806l6.020 10.423M13.578 11.806h12.038M11.155 16l6.020-10.423M13.578 20.194l-6.020-10.423M18.422 20.195h-12.038M20.845 16l-6.020 10.423">
      </path>
    </symbol>
  </defs>
</svg>